<svg width="80" height="80" viewBox="0 0 80 80" fill="none" xmlns="http://www.w3.org/2000/svg">
<path d="M51.35 14.4849H60.5666V28.9682L55.9583 24.3599L51.35 28.9682V14.4849Z" fill="#E7E7E9"/>
<path d="M5.92496 21.7266H9.87497L11.1916 60.5682C23.0416 58.5932 39.5 67.1516 39.5 67.1516C39.5 67.1516 53.325 59.2516 65.175 61.2266V66.4932C62.9805 66.4932 57.5383 66.6249 53.325 67.1516C49.1116 67.6782 41.0361 71.321 37.525 73.0766C35.1111 71.5404 29.0983 68.0732 24.3583 66.4932C19.6183 64.9132 10.0944 64.5182 5.92496 64.5182V21.7266Z" fill="#E7E7E9"/>
<path d="M39.5 67.9424V22.0881C39.5 22.0881 33.0351 14.907 11.239 14.6174C10.8761 14.6138 10.527 14.7561 10.27 15.0124C10.0134 15.2718 9.86961 15.6219 9.86971 15.9867V59.1049C9.86363 59.8433 10.4483 60.4514 11.1864 60.4742C33.0299 60.756 39.5 67.9424 39.5 67.9424" stroke="#0A1324" stroke-width="2.63333" stroke-linecap="round" stroke-linejoin="round"/>
<path d="M31.6004 39.1205C27.1192 37.6132 22.465 36.6797 17.7491 36.3423" stroke="#0A1324" stroke-width="2.63333" stroke-linecap="round" stroke-linejoin="round"/>
<path d="M31.6004 50.1653C27.1182 48.6639 22.4642 47.7349 17.7491 47.4003" stroke="#0A1324" stroke-width="2.63333" stroke-linecap="round" stroke-linejoin="round"/>
<path d="M47.3998 39.1205C51.8811 37.6132 56.5352 36.6797 61.2511 36.3423" stroke="#0A1324" stroke-width="2.63333" stroke-linecap="round" stroke-linejoin="round"/>
<path d="M47.3998 50.1653C51.882 48.6639 56.536 47.7349 61.2511 47.4003" stroke="#0A1324" stroke-width="2.63333" stroke-linecap="round" stroke-linejoin="round"/>
<path d="M61.2511 14.9333C63.2525 14.7595 65.4171 14.6489 67.7607 14.6173C68.1218 14.6152 68.4688 14.7574 68.7245 15.0123C68.9811 15.2717 69.1249 15.6219 69.1248 15.9867V59.1049C69.1309 59.8432 68.5462 60.4513 67.8081 60.4742C45.9699 60.756 39.4998 67.9423 39.4998 67.9423" stroke="#0A1324" stroke-width="2.63333" stroke-linecap="round" stroke-linejoin="round"/>
<path d="M39.4998 67.9335V22.0793C39.4998 22.0793 42.5097 18.7349 51.3498 16.5203" stroke="#0A1324" stroke-width="2.63333" stroke-linecap="round" stroke-linejoin="round"/>
<path fill-rule="evenodd" clip-rule="evenodd" d="M61.2248 28.4382V11.0582C57.8966 11.3235 54.5946 11.8519 51.3498 12.6382V28.4382L56.2873 24.4882L61.2248 28.4382Z" stroke="#0A1324" stroke-width="2.63333" stroke-linecap="round" stroke-linejoin="round"/>
</svg>
