<svg width="80" height="80" viewBox="0 0 80 80" fill="none" xmlns="http://www.w3.org/2000/svg">
<path d="M55.3001 17.1171C59.5372 13.0079 63.8585 12.8569 65.4011 14.8533C67.1501 17.1171 64.5242 22.4161 63.2001 23.7003L30.9752 55.3023L23.0418 48.0607C31.869 39.2862 51.0631 21.2264 55.3001 17.1171Z" fill="#E7E7E9"/>
<path fill-rule="evenodd" clip-rule="evenodd" d="M71.6764 7.52707L64.9282 8.27757C59.6352 8.86587 54.7001 11.238 50.9345 15.0039L20.2672 45.6712L33.526 58.9363L64.1996 28.269C67.9667 24.5043 70.3391 19.5687 70.9259 14.2753L71.6764 7.52707Z" stroke="#0A1324" stroke-width="2.63333" stroke-linecap="round" stroke-linejoin="round"/>
<path fill-rule="evenodd" clip-rule="evenodd" d="M20.2662 45.6686L8.93987 41.8911C8.16864 41.6349 7.5853 40.9973 7.39856 40.2064C7.21183 39.4156 7.44841 38.5844 8.02363 38.0104L8.74912 37.2849C13.7739 32.2591 21.2071 30.5037 27.9494 32.7506L31.8739 34.0577L20.2662 45.6686Z" stroke="#0A1324" stroke-width="2.63333" stroke-linecap="round" stroke-linejoin="round"/>
<path fill-rule="evenodd" clip-rule="evenodd" d="M20.2662 45.6686L8.93987 41.8911C8.16864 41.6349 7.5853 40.9973 7.39856 40.2064C7.21183 39.4156 7.44841 38.5844 8.02363 38.0104L8.74912 37.2849C13.7739 32.2591 21.2071 30.5037 27.9494 32.7506L31.8739 34.0577L20.2662 45.6686Z" stroke="#0A1324" stroke-width="2.63333" stroke-linecap="round" stroke-linejoin="round"/>
<path fill-rule="evenodd" clip-rule="evenodd" d="M33.5251 58.938L37.3027 70.2643C37.5588 71.0356 38.1964 71.6189 38.9873 71.8056C39.7782 71.9924 40.6093 71.7558 41.1834 71.1806L41.912 70.4551C46.9367 65.4296 48.6908 57.9965 46.4431 51.2548L45.1423 47.3459L33.5251 58.938Z" stroke="#0A1324" stroke-width="2.63333" stroke-linecap="round" stroke-linejoin="round"/>
<path fill-rule="evenodd" clip-rule="evenodd" d="M33.5251 58.938L37.3027 70.2643C37.5588 71.0356 38.1964 71.6189 38.9873 71.8056C39.7782 71.9924 40.6093 71.7558 41.1834 71.1806L41.912 70.4551C46.9367 65.4296 48.6908 57.9965 46.4431 51.2548L45.1423 47.3459L33.5251 58.938Z" stroke="#0A1324" stroke-width="2.63333" stroke-linecap="round" stroke-linejoin="round"/>
<path d="M25.6419 60.5936C25.6444 62.4601 24.9027 64.2506 23.5812 65.5688C20.8356 68.3143 7.00763 72.2013 7.00763 72.2013C7.00763 72.2013 10.8946 58.364 13.6402 55.6278C14.8463 54.4188 16.4516 53.6906 18.1557 53.5795" stroke="#0A1324" stroke-width="2.63333" stroke-linecap="round" stroke-linejoin="round"/>
<path d="M14.4835 61.228C15.5368 57.0146 18.8724 56.4002 20.4085 56.6196C21.5378 56.7809 22.3835 57.2755 22.3835 59.2505C22.3835 62.4541 20.4085 64.0783 19.0918 64.5172L13.1668 66.4922C13.1668 66.4922 13.4301 65.4413 14.4835 61.228Z" fill="#E7E7E9"/>
</svg>
