<svg width="80" height="80" viewBox="0 0 80 80" fill="none" xmlns="http://www.w3.org/2000/svg">
<circle cx="57.9334" cy="55.3015" r="5.26667" fill="#E7E7E9"/>
<circle cx="18.4334" cy="55.3015" r="5.26667" fill="#E7E7E9"/>
<circle cx="38.1834" cy="18.4349" r="5.26667" fill="#E7E7E9"/>
<path d="M43.4501 30.2849H31.6001C31.6001 30.2849 34.2528 26.3349 37.5251 26.3349C40.7974 26.3349 43.4501 28.1034 43.4501 30.2849Z" fill="#E7E7E9"/>
<path d="M22.3834 68.4682H10.5334C10.5334 68.4682 13.1861 64.5182 16.4584 64.5182C19.7307 64.5182 22.3834 66.2867 22.3834 68.4682Z" fill="#E7E7E9"/>
<path d="M61.8834 68.4682H50.0334C50.0334 68.4682 52.6861 64.5182 55.9584 64.5182C59.2307 64.5182 61.8834 66.2867 61.8834 68.4682Z" fill="#E7E7E9"/>
<path fill-rule="evenodd" clip-rule="evenodd" d="M19.7477 61.2281C23.5654 61.2281 26.6602 58.1333 26.6602 54.3156C26.6602 50.4979 23.5654 47.4031 19.7477 47.4031C15.9301 47.4031 12.8352 50.4979 12.8352 54.3156C12.8352 58.1333 15.9301 61.2281 19.7477 61.2281Z" stroke="#0A1324" stroke-width="2.63333" stroke-linecap="round" stroke-linejoin="round"/>
<path d="M29.6227 69.1281C27.6777 65.4812 23.881 63.2031 19.7477 63.2031C15.6145 63.2031 11.8178 65.4812 9.87274 69.1281" stroke="#0A1324" stroke-width="2.63333" stroke-linecap="round" stroke-linejoin="round"/>
<path fill-rule="evenodd" clip-rule="evenodd" d="M59.2477 61.2281C63.0654 61.2281 66.1602 58.1333 66.1602 54.3156C66.1602 50.4979 63.0654 47.4031 59.2477 47.4031C55.4301 47.4031 52.3352 50.4979 52.3352 54.3156C52.3352 58.1333 55.4301 61.2281 59.2477 61.2281Z" stroke="#0A1324" stroke-width="2.63333" stroke-linecap="round" stroke-linejoin="round"/>
<path d="M69.1227 69.1281C67.1777 65.4812 63.381 63.2031 59.2477 63.2031C55.1145 63.2031 51.3178 65.4812 49.3727 69.1281" stroke="#0A1324" stroke-width="2.63333" stroke-linecap="round" stroke-linejoin="round"/>
<path fill-rule="evenodd" clip-rule="evenodd" d="M39.4977 23.7031C43.3154 23.7031 46.4102 20.6083 46.4102 16.7906C46.4102 12.9729 43.3154 9.87811 39.4977 9.87811C35.6801 9.87811 32.5852 12.9729 32.5852 16.7906C32.5852 20.6083 35.6801 23.7031 39.4977 23.7031Z" stroke="#0A1324" stroke-width="2.63333" stroke-linecap="round" stroke-linejoin="round"/>
<path d="M48.0535 29.6307C45.9176 27.1229 42.7893 25.6781 39.4952 25.6781C36.2011 25.6781 33.0727 27.1229 30.9368 29.6307" stroke="#0A1324" stroke-width="2.63333" stroke-linecap="round" stroke-linejoin="round"/>
<path d="M31.7314 59.7943C36.7748 61.7171 42.3523 61.7002 47.384 59.7469" stroke="#0A1324" stroke-width="2.63333" stroke-linecap="round" stroke-linejoin="round"/>
<path d="M24.6168 23.7031C20.247 27.7958 17.7683 33.5161 17.7702 39.5031C17.7702 40.1694 17.8097 40.8198 17.8702 41.4781" stroke="#0A1324" stroke-width="2.63333" stroke-linecap="round" stroke-linejoin="round"/>
<path d="M61.1224 41.4781C61.1803 40.8251 61.2225 40.1615 61.2225 39.5031C61.2253 33.5159 58.7464 27.7952 54.3758 23.7031" stroke="#0A1324" stroke-width="2.63333" stroke-linecap="round" stroke-linejoin="round"/>
</svg>
